# xmcd
#
# Track frame offsets:
#	150
#	23240
#	43804
#	64946
#	96423
#	117925
#	140451
#	165652
#	191445
#	217874
#
# Disc length: 3185 seconds
#
# Revision: 1
# Processed by: cddbd v1.5.1PL0 Copyright (c) Steve Scherf et al.
# Submitted via: audiograbber 1.81.02
#
DISCID=8c0c6f0a
DTITLE=New Song Christian Fellowship - portraits of Worship Live
DYEAR=2004
DGENRE=Chorus
TTITLE0=I ve Got The Joy
TTITLE1=Lift Him Up
TTITLE2=Whole Heart
TTITLE3=The Power Of Your Love
TTITLE4=The Lamb Who Was Slain
TTITLE5=Worship Christ The Lord
TTITLE6=Destined For Greatness
TTITLE7=We Look To You - Jesus
TTITLE8=Pour Your Anointing Oil On Me
TTITLE9=Real Joy
EXTD=
EXTT0=
EXTT1=
EXTT2=
EXTT3=
EXTT4=
EXTT5=
EXTT6=
EXTT7=
EXTT8=
EXTT9=
PLAYORDER=
